<svg xmlns="http://www.w3.org/2000/svg" xmlns:xlink="http://www.w3.org/1999/xlink" width="500" zoomAndPan="magnify" viewBox="0 0 375 374.999991" height="500" preserveAspectRatio="xMidYMid meet" version="1.0"><defs><clipPath id="4fb1858c4b"><path d="M 124.472656 1.214844 L 357.851562 1.214844 L 357.851562 234.597656 L 124.472656 234.597656 Z M 124.472656 1.214844 " clip-rule="nonzero"/></clipPath><clipPath id="28b86120f2"><path d="M 0.472656 0.214844 L 233.851562 0.214844 L 233.851562 233.597656 L 0.472656 233.597656 Z M 0.472656 0.214844 " clip-rule="nonzero"/></clipPath><clipPath id="4798abdfca"><rect x="0" width="234" y="0" height="234"/></clipPath><clipPath id="4323ac1fc8"><path d="M 38 253.199219 L 355 253.199219 L 355 358.777344 L 38 358.777344 Z M 38 253.199219 " clip-rule="nonzero"/></clipPath><clipPath id="c6fd4849ff"><path d="M 1.210938 4 L 106.785156 4 L 106.785156 322 L 1.210938 322 Z M 1.210938 4 " clip-rule="nonzero"/></clipPath><clipPath id="dc6564839c"><path d="M 0.210938 0.0390625 L 105.785156 0.0390625 L 105.785156 317 L 0.210938 317 Z M 0.210938 0.0390625 " clip-rule="nonzero"/></clipPath><clipPath id="22245593e3"><rect x="0" width="106" y="0" height="318"/></clipPath><clipPath id="1a234ce72a"><rect x="0" width="358" y="0" height="360"/></clipPath></defs><g transform="matrix(1, 0, 0, 1, 8, 7)"><g clip-path="url(#1a234ce72a)"><g clip-path="url(#4fb1858c4b)"><g transform="matrix(1, 0, 0, 1, 124, 1)"><g clip-path="url(#4798abdfca)"><g clip-path="url(#28b86120f2)"><path fill="#ffffff" d="M -30.78125 305.472656 L 161.011719 305.472656 C 164.449219 305.472656 167.40625 304.246094 169.839844 301.828125 L 204.929688 266.738281 C 208.574219 263.09375 209.605469 257.910156 207.632812 253.148438 C 205.664062 248.382812 201.257812 245.441406 196.105469 245.441406 L 4.292969 245.441406 C 0.859375 245.441406 -2.097656 246.667969 -4.53125 249.101562 L -39.609375 284.191406 C -43.25 287.835938 -44.28125 293.019531 -42.3125 297.78125 C -40.339844 302.546875 -35.949219 305.472656 -30.78125 305.472656 Z M 233.691406 218.027344 L 233.691406 12.773438 C 233.691406 5.90625 228.089844 0.304688 221.222656 0.304688 L 15.988281 0.304688 C 9.117188 0.304688 3.519531 5.90625 3.519531 12.773438 L 3.519531 218.027344 C 3.519531 224.894531 9.117188 230.496094 15.988281 230.496094 L 221.222656 230.496094 C 228.089844 230.496094 233.691406 224.894531 233.691406 218.027344 Z M -32.722656 29.066406 L -67.832031 64.171875 C -70.265625 66.609375 -71.472656 69.5625 -71.472656 73 L -71.472656 264.824219 C -71.472656 269.976562 -68.53125 274.367188 -63.785156 276.351562 C -59.019531 278.324219 -53.839844 277.292969 -50.195312 273.648438 L -15.089844 238.542969 C -12.65625 236.109375 -11.445312 233.167969 -11.445312 229.734375 L -11.445312 37.90625 C -11.445312 32.753906 -14.386719 28.363281 -19.136719 26.394531 C -23.898438 24.421875 -29.082031 25.453125 -32.722656 29.097656 Z M -32.722656 29.066406 " fill-opacity="1" fill-rule="evenodd"/></g></g></g></g><g clip-path="url(#4323ac1fc8)"><path fill="#ffffff" d="M 282.609375 344.847656 C 275.367188 353.023438 260.5 359.714844 249.578125 359.714844 L 48.75 359.714844 C 37.828125 359.714844 34.8125 353.023438 42.054688 344.847656 L 109.992188 268.132812 C 117.238281 259.953125 132.101562 253.261719 143.027344 253.261719 L 343.851562 253.261719 C 354.777344 253.261719 357.789062 259.953125 350.546875 268.132812 Z M 282.609375 344.847656 " fill-opacity="1" fill-rule="nonzero"/></g><g clip-path="url(#c6fd4849ff)"><g transform="matrix(1, 0, 0, 1, 1, 4)"><g clip-path="url(#22245593e3)"><g clip-path="url(#dc6564839c)"><path fill="#ffffff" d="M 91.855469 245.011719 C 100.035156 237.765625 106.726562 222.902344 106.726562 211.976562 L 106.726562 11.152344 C 106.726562 0.226562 100.035156 -2.785156 91.855469 4.457031 L 15.140625 72.394531 C 6.964844 79.636719 0.273438 94.503906 0.273438 105.429688 L 0.273438 306.253906 C 0.273438 317.179688 6.964844 320.191406 15.140625 312.949219 Z M 91.855469 245.011719 " fill-opacity="1" fill-rule="nonzero"/></g></g></g></g></g></g></svg>